<svg width="57" height="57" viewBox="0 0 57 57" fill="none" xmlns="http://www.w3.org/2000/svg">
<rect x="4.5" y="4.94897" width="48" height="48" rx="24" fill="#F4EBFF"/>
<path d="M22.5944 28.1778C22.5322 27.7772 22.5 27.3668 22.5 26.949C22.5 22.5307 26.1052 18.949 30.5526 18.949C34.9999 18.949 38.6052 22.5307 38.6052 26.949C38.6052 27.947 38.4213 28.9024 38.0852 29.7835C38.0154 29.9665 37.9804 30.058 37.9646 30.1294C37.9489 30.2002 37.9428 30.2499 37.9411 30.3224C37.9394 30.3956 37.9493 30.4761 37.9692 30.6373L38.3717 33.9075C38.4153 34.2615 38.4371 34.4385 38.3782 34.5672C38.3266 34.6799 38.235 34.7695 38.1211 34.8185C37.9911 34.8744 37.8146 34.8485 37.4617 34.7968L34.2765 34.3299C34.1101 34.3055 34.027 34.2933 33.9512 34.2937C33.8763 34.2942 33.8245 34.2997 33.7511 34.3151C33.677 34.3307 33.5823 34.3662 33.393 34.4371C32.5097 34.768 31.5524 34.949 30.5526 34.949C30.1344 34.949 29.7237 34.9173 29.3227 34.8562M24.1316 38.949C27.0965 38.949 29.5 36.4865 29.5 33.449C29.5 30.4114 27.0965 27.949 24.1316 27.949C21.1667 27.949 18.7632 30.4114 18.7632 33.449C18.7632 34.0596 18.8603 34.6469 19.0395 35.1957C19.1153 35.4277 19.1532 35.5437 19.1657 35.6229C19.1786 35.7056 19.1809 35.7521 19.1761 35.8357C19.1714 35.9158 19.1514 36.0063 19.1113 36.1873L18.5 38.949L21.4948 38.54C21.6583 38.5176 21.74 38.5065 21.8114 38.507C21.8865 38.5075 21.9264 38.5116 22.0001 38.5262C22.0701 38.5402 22.1742 38.5769 22.3823 38.6504C22.9306 38.8439 23.5191 38.949 24.1316 38.949Z" stroke="#80442C" stroke-width="2" stroke-linecap="round" stroke-linejoin="round"/>
<rect x="4.5" y="4.94897" width="48" height="48" rx="24" stroke="#F9F5FF" stroke-width="8"/>
</svg>
