<svg width="40" height="41" viewBox="0 0 40 41" fill="none" xmlns="http://www.w3.org/2000/svg">
<circle cx="20" cy="20.3857" r="20" fill="#663300"/>
<g clip-path="url(#clip0_318_213)">
<path fill-rule="evenodd" clip-rule="evenodd" d="M12 20.3857C12.0001 18.8462 12.4445 17.3394 13.2798 16.0461C14.1151 14.7529 15.3058 13.7281 16.709 13.0948C18.1123 12.4614 19.6684 12.2464 21.1908 12.4756C22.7132 12.7048 24.1372 13.3684 25.2918 14.3867C26.4464 15.4051 27.2826 16.735 27.7002 18.2169C28.1177 19.6987 28.0988 21.2696 27.6457 22.7409C27.1926 24.2123 26.3246 25.5217 25.1458 26.5119C23.967 27.5022 22.5275 28.1313 21 28.3237V22.3857H23C23.2652 22.3857 23.5196 22.2804 23.7071 22.0928C23.8946 21.9053 24 21.651 24 21.3857C24 21.1205 23.8946 20.8662 23.7071 20.6786C23.5196 20.4911 23.2652 20.3857 23 20.3857H21V18.3857C21 18.1205 21.1054 17.8662 21.2929 17.6786C21.4804 17.4911 21.7348 17.3857 22 17.3857H22.5C22.7652 17.3857 23.0196 17.2804 23.2071 17.0928C23.3946 16.9053 23.5 16.651 23.5 16.3857C23.5 16.1205 23.3946 15.8662 23.2071 15.6786C23.0196 15.4911 22.7652 15.3857 22.5 15.3857H22C21.2044 15.3857 20.4413 15.7018 19.8787 16.2644C19.3161 16.827 19 17.5901 19 18.3857V20.3857H17C16.7348 20.3857 16.4804 20.4911 16.2929 20.6786C16.1054 20.8662 16 21.1205 16 21.3857C16 21.651 16.1054 21.9053 16.2929 22.0928C16.4804 22.2804 16.7348 22.3857 17 22.3857H19V28.3237C17.0667 28.08 15.2888 27.139 14 25.6775C12.7112 24.216 12 22.3344 12 20.3857ZM20 30.3857C25.523 30.3857 30 25.9087 30 20.3857C30 14.8627 25.523 10.3857 20 10.3857C14.477 10.3857 10 14.8627 10 20.3857C10 25.9087 14.477 30.3857 20 30.3857Z" fill="white"/>
</g>
<defs>
<clipPath id="clip0_318_213">
<rect width="24" height="24" fill="white" transform="translate(8 8.38574)"/>
</clipPath>
</defs>
</svg>
