<svg width="40" height="41" viewBox="0 0 40 41" fill="none" xmlns="http://www.w3.org/2000/svg">
<circle cx="20" cy="20.3857" r="20" fill="#663300"/>
<path d="M15.8 10.3857H24.2C27.4 10.3857 30 12.9857 30 16.1857V24.5857C30 26.124 29.3889 27.5993 28.3012 28.687C27.2135 29.7747 25.7383 30.3857 24.2 30.3857H15.8C12.6 30.3857 10 27.7857 10 24.5857V16.1857C10 14.6475 10.6111 13.1722 11.6988 12.0845C12.7865 10.9968 14.2617 10.3857 15.8 10.3857ZM15.6 12.3857C14.6452 12.3857 13.7295 12.765 13.0544 13.4402C12.3793 14.1153 12 15.031 12 15.9857V24.7857C12 26.7757 13.61 28.3857 15.6 28.3857H24.4C25.3548 28.3857 26.2705 28.0065 26.9456 27.3313C27.6207 26.6562 28 25.7405 28 24.7857V15.9857C28 13.9957 26.39 12.3857 24.4 12.3857H15.6ZM25.25 13.8857C25.5815 13.8857 25.8995 14.0174 26.1339 14.2519C26.3683 14.4863 26.5 14.8042 26.5 15.1357C26.5 15.4673 26.3683 15.7852 26.1339 16.0196C25.8995 16.254 25.5815 16.3857 25.25 16.3857C24.9185 16.3857 24.6005 16.254 24.3661 16.0196C24.1317 15.7852 24 15.4673 24 15.1357C24 14.8042 24.1317 14.4863 24.3661 14.2519C24.6005 14.0174 24.9185 13.8857 25.25 13.8857ZM20 15.3857C21.3261 15.3857 22.5979 15.9125 23.5355 16.8502C24.4732 17.7879 25 19.0597 25 20.3857C25 21.7118 24.4732 22.9836 23.5355 23.9213C22.5979 24.859 21.3261 25.3857 20 25.3857C18.6739 25.3857 17.4021 24.859 16.4645 23.9213C15.5268 22.9836 15 21.7118 15 20.3857C15 19.0597 15.5268 17.7879 16.4645 16.8502C17.4021 15.9125 18.6739 15.3857 20 15.3857ZM20 17.3857C19.2044 17.3857 18.4413 17.7018 17.8787 18.2644C17.3161 18.827 17 19.5901 17 20.3857C17 21.1814 17.3161 21.9445 17.8787 22.5071C18.4413 23.0697 19.2044 23.3857 20 23.3857C20.7956 23.3857 21.5587 23.0697 22.1213 22.5071C22.6839 21.9445 23 21.1814 23 20.3857C23 19.5901 22.6839 18.827 22.1213 18.2644C21.5587 17.7018 20.7956 17.3857 20 17.3857Z" fill="white"/>
</svg>
