<svg width="30" height="31" viewBox="0 0 30 31" fill="none" xmlns="http://www.w3.org/2000/svg">
<path d="M5 25.8857C4.3125 25.8857 3.72375 25.6407 3.23375 25.1507C2.74375 24.6607 2.49917 24.0724 2.5 23.3857V8.38574C2.5 7.69824 2.745 7.10949 3.235 6.61949C3.725 6.12949 4.31334 5.88491 5 5.88574H25C25.6875 5.88574 26.2763 6.13074 26.7663 6.62074C27.2563 7.11074 27.5008 7.69908 27.5 8.38574V23.3857C27.5 24.0732 27.255 24.662 26.765 25.152C26.275 25.642 25.6867 25.8866 25 25.8857H5ZM15 17.1357L5 10.8857V23.3857H25V10.8857L15 17.1357ZM15 14.6357L25 8.38574H5L15 14.6357ZM5 10.8857V8.38574V23.3857V10.8857Z" fill="#2B2B2B"/>
</svg>
