<svg width="30" height="31" viewBox="0 0 30 31" fill="none" xmlns="http://www.w3.org/2000/svg">
<path d="M24.9375 26.6357C22.25 26.6357 19.6304 26.0366 17.0788 24.8382C14.5271 23.6399 12.2667 22.0566 10.2975 20.0882C8.32833 18.1199 6.745 15.8595 5.5475 13.307C4.35 10.7545 3.75083 8.13491 3.75 5.44824C3.75 5.07324 3.875 4.76074 4.125 4.51074C4.375 4.26074 4.6875 4.13574 5.0625 4.13574H10.125C10.4167 4.13574 10.6771 4.22949 10.9063 4.41699C11.1354 4.60449 11.2708 4.84408 11.3125 5.13574L12.125 9.51074C12.1667 9.80241 12.1613 10.0682 12.1088 10.3082C12.0563 10.5482 11.9367 10.7616 11.75 10.9482L8.71875 14.0107C9.59375 15.5107 10.6929 16.917 12.0162 18.2295C13.3396 19.542 14.7925 20.6774 16.375 21.6357L19.3125 18.6982C19.5 18.5107 19.745 18.3699 20.0475 18.2757C20.35 18.1816 20.6467 18.1557 20.9375 18.1982L25.25 19.0732C25.5417 19.1357 25.7812 19.2766 25.9688 19.4957C26.1562 19.7149 26.25 19.9699 26.25 20.2607V25.3232C26.25 25.6982 26.125 26.0107 25.875 26.2607C25.625 26.5107 25.3125 26.6357 24.9375 26.6357ZM7.53125 11.6357L9.59375 9.57324L9.0625 6.63574H6.28125C6.38542 7.48991 6.53125 8.33366 6.71875 9.16699C6.90625 10.0003 7.17708 10.8232 7.53125 11.6357ZM18.7188 22.8232C19.5312 23.1774 20.3596 23.4587 21.2037 23.667C22.0479 23.8753 22.8967 24.0107 23.75 24.0732V21.3232L20.8125 20.7295L18.7188 22.8232Z" fill="#2B2B2B"/>
</svg>
