<svg width="40" height="41" viewBox="0 0 40 41" fill="none" xmlns="http://www.w3.org/2000/svg">
<circle cx="20" cy="20.3857" r="20" fill="#663300"/>
<path d="M30.2121 14.0417C29.449 14.3793 28.6397 14.601 27.8111 14.6997C28.6842 14.1768 29.3374 13.3544 29.6491 12.3857C28.8291 12.8737 27.9301 13.2157 26.9941 13.4007C26.3647 12.7272 25.5305 12.2806 24.6211 12.1303C23.7117 11.9799 22.7781 12.1342 21.9654 12.5691C21.1527 13.0041 20.5065 13.6954 20.1272 14.5355C19.748 15.3756 19.6569 16.3174 19.8681 17.2147C18.2051 17.1315 16.5781 16.6994 15.0929 15.9465C13.6076 15.1937 12.2974 14.1368 11.2471 12.8447C10.8754 13.4831 10.6801 14.2089 10.6811 14.9477C10.6811 16.3977 11.4201 17.6787 12.5411 18.4287C11.8771 18.4077 11.2278 18.2284 10.6471 17.9057V17.9567C10.6471 18.9225 10.9812 19.8587 11.5927 20.6063C12.2042 21.354 13.0554 21.8671 14.0021 22.0587C13.3858 22.2259 12.7394 22.2505 12.1121 22.1307C12.379 22.9621 12.8993 23.6891 13.6001 24.2101C14.3009 24.731 15.1471 25.0197 16.0201 25.0357C15.1525 25.7171 14.159 26.2208 13.0965 26.518C12.0341 26.8152 10.9234 26.9001 9.82812 26.7677C11.7398 27.997 13.9652 28.6497 16.2381 28.6477C23.9321 28.6477 28.1381 22.2747 28.1381 16.7477C28.1381 16.5677 28.1341 16.3857 28.1261 16.2067C28.9445 15.615 29.6509 14.8812 30.2121 14.0417Z" fill="white"/>
</svg>
